<?xml version="1.0" encoding="UTF-8"?>
<svg version="1.1" xmlns="http://www.w3.org/2000/svg" width="32" height="32">
<path d="M0 0 C3.03166289 0.1510238 3.93108542 0.59492484 6.0078125 2.86328125 C7.51828119 5.15087513 8.87383204 7.47039671 10.1875 9.875 C10.5175 10.205 10.8475 10.535 11.1875 10.875 C11.5175 10.215 11.8475 9.555 12.1875 8.875 C13.1775 8.875 14.1675 8.875 15.1875 8.875 C14.64026317 12.24962715 14.1326 13.95735 12.1875 16.875 C13.5075 16.875 14.8275 16.875 16.1875 16.875 C16.1875 17.865 16.1875 18.855 16.1875 19.875 C14.8675 19.875 13.5475 19.875 12.1875 19.875 C13.6725 24.33 13.6725 24.33 15.1875 28.875 C14.445 28.6275 13.7025 28.38 12.9375 28.125 C11.57625 28.00125 11.57625 28.00125 10.1875 27.875 C9.61 28.49375 9.0325 29.1125 8.4375 29.75 C5.51220186 32.51278158 3.37015067 32.69958957 -0.55859375 32.984375 C-4.89544797 32.77392107 -7.81872803 30.86877197 -10.8125 27.875 C-12.1325 28.205 -13.4525 28.535 -14.8125 28.875 C-13.8225 25.905 -12.8325 22.935 -11.8125 19.875 C-13.1325 19.875 -14.4525 19.875 -15.8125 19.875 C-15.8125 18.885 -15.8125 17.895 -15.8125 16.875 C-14.4925 16.875 -13.1725 16.875 -11.8125 16.875 C-12.555 15.7303125 -12.555 15.7303125 -13.3125 14.5625 C-14.8125 11.875 -14.8125 11.875 -14.8125 8.875 C-13.8225 8.875 -12.8325 8.875 -11.8125 8.875 C-11.4825 9.535 -11.1525 10.195 -10.8125 10.875 C-8.69282672 8.31677362 -6.91815604 6.11272609 -5.5625 3.0625 C-3.8125 0.875 -3.8125 0.875 0 0 Z " fill="#AB3041" transform="translate(15.8125,-0.875)"/>
<path d="M0 0 C0.99 0 1.98 0 3 0 C3.33 0.66 3.66 1.32 4 2 C4.9075 1.67 5.815 1.34 6.75 1 C10 0 10 0 14 0 C14 7.92 14 15.84 14 24 C8 22 8 22 5.875 20.3125 C5.25625 19.879375 4.6375 19.44625 4 19 C2.68 19.33 1.36 19.66 0 20 C0.99 17.03 1.98 14.06 3 11 C1.68 11 0.36 11 -1 11 C-1 10.01 -1 9.02 -1 8 C0.32 8 1.64 8 3 8 C2.505 7.236875 2.01 6.47375 1.5 5.6875 C-0 3 -0 3 0 0 Z " fill="#B42F41" transform="translate(1,8)"/>
<path d="M0 0 C5.10880829 -0.79274611 5.10880829 -0.79274611 8 0 C10.53166875 2.71704199 12.28204023 5.72025861 14 9 C13.67 9.66 13.34 10.32 13 11 C10.36 10.01 7.72 9.02 5 8 C5 15.59 5 23.18 5 31 C4.34 31 3.68 31 3 31 C3 23.41 3 15.82 3 8 C-1.455 9.485 -1.455 9.485 -6 11 C-4.11900578 7.23801156 -2.10046807 3.64081132 0 0 Z " fill="#38363D" transform="translate(12,0)"/>
<path d="M0 0 C5.75 0.75 5.75 0.75 8 3 C7.01 3.495 7.01 3.495 6 4 C5.01 3.67 4.02 3.34 3 3 C3 4.32 3 5.64 3 7 C3.99 7.33 4.98 7.66 6 8 C5.67 8.99 5.34 9.98 5 11 C3.68 11 2.36 11 1 11 C-0.20272819 8.59454362 -0.10071472 7.05003047 -0.0625 4.375 C-0.05347656 3.55773437 -0.04445313 2.74046875 -0.03515625 1.8984375 C-0.02355469 1.27195312 -0.01195313 0.64546875 0 0 Z " fill="#C22F42" transform="translate(17,8)"/>
<path d="M0 0 C0.66 0 1.32 0 2 0 C2.33 0.99 2.66 1.98 3 3 C-0.17320782 6.53586014 -2.16743695 8.58578031 -7 9 C-7 6.36 -7 3.72 -7 1 C-6.01 2.485 -6.01 2.485 -5 4 C-3.68 4 -2.36 4 -1 4 C-0.67 2.68 -0.34 1.36 0 0 Z " fill="#D82B3F" transform="translate(24,23)"/>
<path d="M0 0 C1.32 0 2.64 0 4 0 C8 6.75 8 6.75 8 9 C6.68 8.67 5.36 8.34 4 8 C3.896875 7.360625 3.79375 6.72125 3.6875 6.0625 C3.460625 5.381875 3.23375 4.70125 3 4 C2.01 3.67 1.02 3.34 0 3 C0 2.01 0 1.02 0 0 Z " fill="#59323B" transform="translate(23,19)"/>
<path d="M0 0 C1.32 0 2.64 0 4 0 C4 1.65 4 3.3 4 5 C2.35 4.67 0.7 4.34 -1 4 C-0.67 2.68 -0.34 1.36 0 0 Z " fill="#43363D" transform="translate(7,17)"/>
<path d="M0 0 C1.98 0.495 1.98 0.495 4 1 C3.67 2.32 3.34 3.64 3 5 C1.68 5 0.36 5 -1 5 C-0.67 3.35 -0.34 1.7 0 0 Z " fill="#3E363D" transform="translate(20,23)"/>
<path d="M0 0 C0.99 0 1.98 0 3 0 C2.67 1.65 2.34 3.3 2 5 C1.01 5.33 0.02 5.66 -1 6 C-0.67 4.02 -0.34 2.04 0 0 Z " fill="#32353B" transform="translate(28,8)"/>
<path d="M0 0 C0.99 0 1.98 0 3 0 C3.33 1.98 3.66 3.96 4 6 C3.01 5.67 2.02 5.34 1 5 C0.67 3.35 0.34 1.7 0 0 Z " fill="#32373B" transform="translate(1,8)"/>
</svg>
